<svg xmlns="http://www.w3.org/2000/svg" xmlns:xlink="http://www.w3.org/1999/xlink" width="500" zoomAndPan="magnify" viewBox="0 0 375 374.999991" height="500" preserveAspectRatio="xMidYMid meet" version="1.0"><defs><g/><clipPath id="d6ca45f1c2"><path d="M 102.574219 95 L 272.675781 95 L 272.675781 244.164062 L 102.574219 244.164062 Z M 102.574219 95 " clip-rule="nonzero"/></clipPath><clipPath id="214c97d71d"><path d="M 109.308594 119.273438 C 95.535156 141.960938 105.238281 164.046875 117.429688 175.765625 L 188.722656 244.164062 L 258.507812 176.011719 C 269.847656 163.402344 274.195312 150.027344 271.78125 135.136719 C 268.445312 114.535156 251.46875 98.550781 230.5 96.269531 C 217.636719 94.882812 205.210938 98.523438 195.515625 106.582031 C 192.902344 108.75 190.570312 111.175781 188.539062 113.808594 C 186.125 110.808594 183.296875 108.066406 180.097656 105.632812 C 168.945312 97.15625 154.75 93.792969 141.117188 96.410156 C 128.203125 98.90625 116.609375 107.234375 109.308594 119.273438 Z M 109.308594 119.273438 " clip-rule="nonzero"/></clipPath><clipPath id="cabc612fb5"><path d="M 151 88.03125 L 262 88.03125 L 262 199 L 151 199 Z M 151 88.03125 " clip-rule="nonzero"/></clipPath></defs><g clip-path="url(#d6ca45f1c2)"><g clip-path="url(#214c97d71d)"><path fill="#996fc6" d="M 102.574219 95.542969 L 272.675781 95.542969 L 272.675781 244.164062 L 102.574219 244.164062 Z M 102.574219 95.542969 " fill-opacity="1" fill-rule="nonzero"/></g></g><g clip-path="url(#cabc612fb5)"><path fill="#f4fbfa" d="M 261.230469 95.671875 C 255.03125 107.8125 247.324219 119.753906 238.742188 131.144531 C 229.347656 143.621094 218.863281 155.464844 208.105469 166.222656 L 208.125 166.242188 C 202.558594 171.789062 196.75 177.226562 190.746094 182.464844 C 184.9375 187.527344 178.949219 192.398438 172.800781 197.019531 C 172.148438 197.507812 171.421875 197.847656 170.65625 198.042969 C 169.8125 198.238281 168.96875 198.253906 168.140625 198.058594 L 166.277344 197.605469 L 165.660156 195.820312 C 165.207031 194.507812 164.621094 193.242188 163.90625 192.054688 C 163.175781 190.824219 162.351562 189.703125 161.441406 188.714844 L 161.085938 188.308594 L 160.679688 187.917969 C 160.515625 187.757812 160.289062 187.546875 160.011719 187.300781 C 159.800781 187.105469 159.574219 186.914062 159.332031 186.71875 C 158.421875 185.988281 157.515625 185.355469 156.605469 184.804688 C 155.695312 184.265625 154.789062 183.796875 153.878906 183.421875 L 151.332031 182.386719 L 151.785156 179.660156 C 151.867188 179.171875 152.015625 178.71875 152.191406 178.28125 L 152.207031 178.28125 C 152.386719 177.875 152.613281 177.484375 152.90625 177.113281 C 157.515625 170.960938 162.382812 164.976562 167.445312 159.183594 C 172.6875 153.164062 178.121094 147.351562 183.671875 141.804688 C 194.394531 131.078125 206.242188 120.613281 218.765625 111.167969 C 230.15625 102.585938 242.101562 94.878906 254.238281 88.679688 C 255.242188 88.160156 256.296875 87.964844 257.304688 88.046875 C 258.488281 88.160156 259.558594 88.648438 260.417969 89.507812 C 261.261719 90.351562 261.75 91.421875 261.863281 92.605469 C 261.960938 93.613281 261.75 94.683594 261.230469 95.671875 Z M 233.226562 126.972656 C 240.414062 117.417969 246.96875 107.503906 252.484375 97.441406 C 242.410156 102.960938 232.496094 109.5 222.953125 116.6875 C 210.734375 125.886719 199.132812 136.15625 188.585938 146.703125 C 183.054688 152.238281 177.730469 157.917969 172.652344 163.742188 C 168.335938 168.691406 164.183594 173.738281 160.222656 178.914062 C 161.375 179.609375 162.527344 180.40625 163.679688 181.332031 C 164.003906 181.589844 164.3125 181.851562 164.636719 182.140625 C 164.863281 182.351562 165.15625 182.628906 165.480469 182.953125 C 165.675781 183.117188 165.855469 183.308594 166.050781 183.488281 L 166.570312 184.074219 C 167.835938 185.453125 168.9375 186.945312 169.878906 188.503906 C 170.15625 188.972656 170.414062 189.460938 170.671875 189.945312 C 175.945312 185.90625 181.125 181.671875 186.167969 177.257812 C 191.996094 172.179688 197.691406 166.855469 203.207031 161.324219 L 203.222656 161.339844 C 213.722656 150.84375 223.992188 139.222656 233.226562 126.972656 Z M 233.226562 126.972656 " fill-opacity="1" fill-rule="nonzero"/></g><path fill="#f4fbfa" d="M 130.789062 202.246094 C 130.675781 203.429688 130.628906 204.191406 130.5625 204.9375 C 130.09375 211.382812 129.636719 217.710938 125.46875 223.226562 C 139.8125 223.617188 149.808594 221.34375 156.410156 217.644531 C 160.953125 215.097656 163.808594 211.898438 165.320312 208.492188 C 166.8125 205.132812 167.023438 201.515625 166.308594 198.109375 C 165.351562 193.628906 162.804688 189.507812 159.332031 186.71875 C 155.875 183.941406 152.46875 182.5625 149.289062 182.289062 C 146.742188 182.0625 144.324219 182.546875 142.117188 183.601562 C 139.84375 184.707031 137.785156 186.410156 136.046875 188.550781 C 133.175781 192.136719 131.246094 196.921875 130.789062 202.246094 Z M 123.667969 204.453125 C 123.75 203.367188 123.828125 202.292969 123.878906 201.628906 C 124.460938 194.945312 126.945312 188.828125 130.660156 184.203125 C 133.011719 181.265625 135.886719 178.929688 139.113281 177.371094 C 142.425781 175.78125 146.074219 175.050781 149.90625 175.375 C 154.382812 175.765625 159.089844 177.632812 163.679688 181.332031 C 168.351562 185.078125 171.792969 190.644531 173.074219 196.664062 C 174.082031 201.433594 173.757812 206.53125 171.648438 211.285156 C 169.554688 216.003906 165.742188 220.335938 159.800781 223.679688 C 150.910156 228.660156 137.070312 231.421875 116.738281 229.652344 L 116.738281 229.636719 C 115.714844 229.554688 114.726562 229.003906 114.125 228.0625 C 113.105469 226.453125 113.574219 224.3125 115.179688 223.289062 C 122.628906 218.554688 123.148438 211.574219 123.667969 204.453125 Z M 123.667969 204.453125 " fill-opacity="1" fill-rule="nonzero"/><path fill="#f4fbfa" d="M 164.378906 166.855469 C 166.617188 167.457031 168.757812 168.351562 170.753906 169.484375 C 172.75 170.636719 174.585938 172.050781 176.222656 173.6875 C 177.863281 175.328125 179.273438 177.160156 180.425781 179.15625 C 181.5625 181.136719 182.453125 183.277344 183.054688 185.53125 L 178.882812 186.652344 C 178.398438 184.804688 177.652344 183 176.675781 181.332031 C 175.71875 179.675781 174.535156 178.132812 173.15625 176.753906 C 171.777344 175.375 170.234375 174.191406 168.582031 173.234375 C 166.910156 172.277344 165.125 171.53125 163.257812 171.027344 Z M 164.378906 166.855469 " fill-opacity="1" fill-rule="nonzero"/><g fill="#1a1a1b" fill-opacity="1"><g transform="translate(118.078122, 202.499987)"><g><path d="M 38.265625 -73.84375 L 63.546875 -8.734375 C 64.515625 -6.234375 65.601562 -4.515625 66.8125 -3.578125 C 68.03125 -2.648438 69.125 -2.148438 70.09375 -2.078125 L 70.09375 0 C 68.007812 -0.132812 65.5625 -0.21875 62.75 -0.25 C 59.945312 -0.289062 57.125 -0.3125 54.28125 -0.3125 C 51.09375 -0.3125 48.078125 -0.289062 45.234375 -0.25 C 42.390625 -0.21875 40.140625 -0.132812 38.484375 0 L 38.484375 -2.078125 C 42.015625 -2.210938 44.25 -2.816406 45.1875 -3.890625 C 46.125 -4.972656 45.898438 -7.28125 44.515625 -10.8125 L 26.828125 -59.171875 L 28.703125 -61.875 L 12.890625 -20.703125 C 11.367188 -16.878906 10.453125 -13.753906 10.140625 -11.328125 C 9.828125 -8.910156 10 -7.039062 10.65625 -5.71875 C 11.3125 -4.40625 12.382812 -3.488281 13.875 -2.96875 C 15.375 -2.445312 17.160156 -2.148438 19.234375 -2.078125 L 19.234375 0 C 16.953125 -0.132812 14.769531 -0.21875 12.6875 -0.25 C 10.601562 -0.289062 8.488281 -0.3125 6.34375 -0.3125 C 4.820312 -0.3125 3.382812 -0.289062 2.03125 -0.25 C 0.675781 -0.21875 -0.519531 -0.132812 -1.5625 0 L -1.5625 -2.078125 C -0.101562 -2.359375 1.382812 -3.296875 2.90625 -4.890625 C 4.4375 -6.484375 5.929688 -9.1875 7.390625 -13 L 31.09375 -73.84375 C 32.207031 -73.769531 33.40625 -73.734375 34.6875 -73.734375 C 35.96875 -73.734375 37.160156 -73.769531 38.265625 -73.84375 Z M 45.546875 -29.953125 L 45.546875 -27.875 L 14.5625 -27.875 L 15.59375 -29.953125 Z M 45.546875 -29.953125 "/></g></g></g><g fill="#1a1a1b" fill-opacity="1"><g transform="translate(187.44085, 202.499987)"><g><path d="M 70.515625 -73.625 L 70.515625 -71.546875 C 68.984375 -70.992188 67.367188 -69.78125 65.671875 -67.90625 C 63.972656 -66.039062 62.394531 -63.128906 60.9375 -59.171875 L 39 0.203125 C 38.445312 0.140625 37.859375 0.109375 37.234375 0.109375 C 36.609375 0.109375 35.984375 0.109375 35.359375 0.109375 C 34.804688 0.109375 34.21875 0.109375 33.59375 0.109375 C 32.96875 0.109375 32.378906 0.140625 31.828125 0.203125 L 5.296875 -64.890625 C 4.328125 -67.390625 3.253906 -69.109375 2.078125 -70.046875 C 0.898438 -70.984375 -0.207031 -71.484375 -1.25 -71.546875 L -1.25 -73.625 C 0.832031 -73.5625 3.273438 -73.492188 6.078125 -73.421875 C 8.890625 -73.347656 11.71875 -73.3125 14.5625 -73.3125 C 17.75 -73.3125 20.742188 -73.347656 23.546875 -73.421875 C 26.359375 -73.492188 28.632812 -73.5625 30.375 -73.625 L 30.375 -71.546875 C 28.15625 -71.484375 26.421875 -71.222656 25.171875 -70.765625 C 23.921875 -70.316406 23.222656 -69.484375 23.078125 -68.265625 C 22.941406 -67.054688 23.363281 -65.238281 24.34375 -62.8125 L 43.265625 -14.65625 L 41.078125 -12.0625 L 55.4375 -50.75 C 57.300781 -55.945312 58.269531 -60.035156 58.34375 -63.015625 C 58.414062 -66.003906 57.6875 -68.15625 56.15625 -69.46875 C 54.632812 -70.789062 52.453125 -71.484375 49.609375 -71.546875 L 49.609375 -73.625 C 51.960938 -73.5625 54.179688 -73.492188 56.265625 -73.421875 C 58.347656 -73.347656 60.460938 -73.3125 62.609375 -73.3125 C 64.128906 -73.3125 65.566406 -73.347656 66.921875 -73.421875 C 68.273438 -73.492188 69.472656 -73.5625 70.515625 -73.625 Z M 70.515625 -73.625 "/></g></g></g></svg>