<svg xmlns="http://www.w3.org/2000/svg" width="2101.529" height="800" fill="none">
	<g data-testid="svg" style="mix-blend-mode: lighten; fill: rgb(0, 0, 0);">
		<g data-testid="svg-g" style="fill: rgb(0, 0, 0);">
			<g data-testid="svg-path">
				<defs>
					<linearGradient x1=".5" y1="0" x2=".5" y2="1" id="a">
						<stop stop-color="hsl(269, 43%, 61%)" offset=".45" />
						<stop stop-color="hsla(269, 43%, 77%, 0.00)" offset="1" />
					</linearGradient>
				</defs>
				<path d="M0 673.759c44.663 7.743 139.249 69.592 214.384 37.167 75.135-32.425 66.11-177.325 146.264-192.806 80.154-15.481 161.264 143.912 238.476 118.499 77.212-25.413 58.39-203.384 132.141-240.483 73.75-37.099 143.957 85.484 221.861 62.408 77.904-23.076 71.059-160.615 152.078-173.174 81.02-12.559 156.661 128.37 236.815 112.89 80.154-15.481 67.944-171.132 147.925-187.197 79.981-16.065 162.406 147.769 235.983 110.085 73.578-37.683 38.937-269.057 117.188-290.965 78.25-21.907 204.577 147.098 258.414 185.808" stroke="url(#a)" fill="none" stroke-width="2" style="fill: none;" class="fills" />
			</g>
			<g data-testid="svg-path">
				<defs>
					<linearGradient x1=".5" y1="0" x2=".5" y2="1" id="b">
						<stop stop-color="hsl(269, 43%, 61%)" offset=".45" />
						<stop stop-color="hsla(269, 43%, 77%, 0.00)" offset="1" />
					</linearGradient>
				</defs>
				<path d="M29.16 656.674c43.243 7.886 134.436 68.658 207.566 37.853s65.604-171.386 143.457-185.718c77.853-14.333 155.154 140.911 230.238 116.922 75.084-23.989 58.34-196.72 130.167-232.069 71.826-35.349 138.866 84.109 214.601 62.392 75.736-21.717 70.263-155.141 148.93-166.633 78.668-11.493 150.821 125.801 228.675 111.469 77.853-14.333 67.33-165.365 145.02-180.266 77.691-14.901 156.229 144.66 227.893 108.742 71.664-35.917 40.032-260.564 116.094-281.145 76.061-20.581 197.126 144.366 249.001 182.357" stroke="url(#b)" fill="none" stroke-width="2" style="fill: none;" class="fills" />
			</g>
			<g data-testid="svg-path">
				<defs>
					<linearGradient x1=".5" y1="0" x2=".5" y2="1" id="c">
						<stop stop-color="hsl(269, 43%, 61%)" offset=".45" />
						<stop stop-color="hsla(269, 43%, 77%, 0.00)" offset="1" />
					</linearGradient>
				</defs>
				<path d="M58.537 640.119c41.823 8.005 129.65 67.647 200.752 38.424 71.102-29.223 65-165.469 140.539-178.695 75.538-13.226 149.108 137.814 222.046 115.21 72.938-22.604 58.177-190.071 128.056-223.708 69.878-33.636 133.81 82.652 207.36 62.255 73.55-20.398 69.375-149.693 145.679-160.161 76.303-10.468 145.039 123.14 220.577 109.914 75.539-13.226 66.622-159.621 142.008-173.399 75.385-13.778 150.118 141.454 219.843 107.266 69.725-34.187 40.983-252.073 114.839-271.367 73.855-19.294 189.738 141.516 239.669 178.757" stroke="url(#c)" fill="none" stroke-width="2" style="fill: none;" class="fills" />
			</g>
			<g data-testid="svg-path">
				<defs>
					<linearGradient x1=".5" y1="0" x2=".5" y2="1" id="d">
						<stop stop-color="hsl(269, 43%, 61%)" offset=".45" />
						<stop stop-color="hsla(269, 43%, 77%, 0.00)" offset="1" />
					</linearGradient>
				</defs>
				<path d="M88.124 624.097c40.405 8.1 124.891 66.558 193.944 38.879 69.052-27.679 64.298-159.576 137.509-171.737 73.211-12.161 143.129 134.622 213.902 113.364 70.774-21.258 57.904-183.442 125.81-215.402 67.906-31.959 128.791 81.113 200.138 61.995 71.346-19.117 68.399-144.272 142.326-153.758 73.928-9.485 139.315 120.389 212.526 108.228 73.211-12.161 65.819-153.904 138.886-166.6 73.067-12.697 144.075 138.153 211.837 105.659 67.763-32.495 41.788-243.588 113.422-261.635 71.634-18.047 182.415 138.548 230.42 175.008" stroke="url(#d)" fill="none" stroke-width="2" style="fill: none;" class="fills" />
			</g>
			<g data-testid="svg-path">
				<defs>
					<linearGradient x1=".5" y1="0" x2=".5" y2="1" id="e">
						<stop stop-color="hsl(269, 43%, 61%)" offset=".45" />
						<stop stop-color="hsla(269, 43%, 77%, 0.00)" offset="1" />
					</linearGradient>
				</defs>
				<path d="M117.913 608.611c38.989 8.17 120.162 65.39 187.144 39.217 66.982-26.173 63.499-153.709 134.37-164.846 70.87-11.138 137.217 131.337 205.808 111.385 68.59-19.951 57.519-176.831 123.428-207.152 65.909-30.32 123.809 79.492 192.936 61.614 69.127-17.877 67.334-138.881 138.875-147.426 71.54-8.545 133.65 117.546 204.52 106.409 70.871-11.138 64.921-148.213 135.657-159.869 70.736-11.657 138.102 134.759 203.877 103.92 65.775-30.839 42.448-235.106 111.844-251.947 69.395-16.841 175.159 135.464 221.254 171.112" stroke="url(#e)" fill="none" stroke-width="2" style="fill: none;" class="fills" />
			</g>
			<g data-testid="svg-path">
				<defs>
					<linearGradient x1=".5" y1="0" x2=".5" y2="1" id="f">
						<stop stop-color="hsl(269, 43%, 61%)" offset=".45" />
						<stop stop-color="hsla(269, 43%, 77%, 0.00)" offset="1" />
					</linearGradient>
				</defs>
				<path d="M147.899 593.662c37.573 8.217 115.463 64.145 180.353 39.44 64.89-24.705 62.602-147.868 131.12-158.024 68.517-10.156 131.373 127.96 197.765 109.275 66.391-18.685 57.023-170.243 120.913-198.961 63.889-28.719 118.865 77.791 185.757 61.113 66.891-16.678 66.179-133.52 135.322-141.168 69.144-7.647 128.047 114.615 196.565 104.459 68.517-10.156 63.928-142.55 132.32-153.207 68.393-10.658 132.2 131.27 195.964 102.05 63.765-29.22 42.964-226.632 110.106-242.307 67.142-15.675 167.972 132.263 212.175 167.069" stroke="url(#f)" fill="none" stroke-width="2" style="fill: none;" class="fills" />
			</g>
			<g data-testid="svg-path">
				<defs>
					<linearGradient x1=".5" y1="0" x2=".5" y2="1" id="g">
						<stop stop-color="hsl(269, 43%, 61%)" offset=".45" />
						<stop stop-color="hsla(269, 43%, 77%, 0.00)" offset="1" />
					</linearGradient>
				</defs>
				<path d="M178.072 579.253c36.161 8.239 110.795 62.823 173.574 39.547 62.778-23.275 61.608-142.054 127.762-151.271 66.153-9.216 125.6 124.491 189.775 107.033 64.175-17.458 56.417-163.677 118.264-190.831 61.847-27.154 113.961 76.01 178.602 60.491 64.64-15.519 64.937-128.189 131.673-134.981 66.735-6.793 122.504 111.594 188.658 102.378 66.153-9.217 62.842-136.916 128.879-146.617 66.037-9.701 126.368 127.69 188.099 100.051 61.731-27.639 43.335-218.169 108.208-232.718 64.874-14.549 160.854 128.948 203.184 162.882" stroke="url(#g)" fill="none" stroke-width="2" style="fill: none;" class="fills" />
			</g>
			<g data-testid="svg-path">
				<defs>
					<linearGradient x1=".5" y1="0" x2=".5" y2="1" id="h">
						<stop stop-color="hsl(269, 43%, 61%)" offset=".45" />
						<stop stop-color="hsla(269, 43%, 77%, 0.00)" offset="1" />
					</linearGradient>
				</defs>
				<path d="M208.427 565.385c34.751 8.238 106.16 61.426 166.806 39.54 60.646-21.885 60.518-136.27 124.297-144.589 63.778-8.319 119.897 120.931 181.84 104.659 61.942-16.271 55.701-157.134 115.483-182.762 59.783-25.628 109.098 74.15 171.472 59.749 62.375-14.4 63.607-122.891 127.926-128.87 64.318-5.98 117.024 108.487 180.803 100.168 63.778-8.319 61.663-131.312 125.333-140.098 63.671-8.787 120.611 124.018 180.285 97.922 59.675-26.095 43.562-209.716 106.152-223.181 62.591-13.464 153.807 125.519 194.282 158.551" stroke="url(#h)" fill="none" stroke-width="2" style="fill: none;" class="fills" />
			</g>
			<g data-testid="svg-path">
				<defs>
					<linearGradient x1=".5" y1="0" x2=".5" y2="1" id="i">
						<stop stop-color="hsl(269, 43%, 61%)" offset=".45" />
						<stop stop-color="hsla(269, 43%, 77%, 0.00)" offset="1" />
					</linearGradient>
				</defs>
				<path d="M238.956 552.062c33.344 8.212 101.557 59.951 160.052 39.417 58.496-20.533 59.332-130.516 120.725-137.979C581.126 446.036 634 570.781 693.695 555.655c59.694-15.125 54.875-150.618 112.571-174.757 57.696-24.139 104.275 72.211 164.369 58.888 60.094-13.323 62.189-117.626 124.082-122.836 61.892-5.21 111.609 105.292 173.002 97.829 61.393-7.464 60.391-125.739 121.684-133.653 61.293-7.914 114.926 120.255 172.522 95.665 57.596-24.59 43.645-201.277 103.939-213.698 60.294-12.421 146.832 121.978 185.472 154.077" stroke="url(#i)" fill="none" stroke-width="2" style="fill: none;" class="fills" />
			</g>
			<g data-testid="svg-path">
				<defs>
					<linearGradient x1=".5" y1="0" x2=".5" y2="1" id="j">
						<stop stop-color="hsl(269, 43%, 61%)" offset=".45" />
						<stop stop-color="hsla(269, 43%, 77%, 0.00)" offset="1" />
					</linearGradient>
				</defs>
				<path d="M269.652 539.284c31.94 8.163 96.989 58.402 153.314 39.181 56.326-19.222 58.05-124.794 117.047-131.445 58.998-6.65 108.71 113.543 166.141 99.523 57.431-14.019 53.94-144.128 109.528-166.817 55.589-22.69 99.496 70.193 157.296 57.907 57.799-12.285 60.685-112.396 120.143-116.878 59.458-4.483 106.258 102.011 165.256 95.361 58.997-6.65 59.026-120.199 117.932-127.283 58.905-7.083 109.318 116.404 164.814 93.281 55.496-23.123 43.583-192.853 101.567-204.272 57.984-11.418 139.931 118.325 176.755 149.462" stroke="url(#j)" fill="none" stroke-width="2" style="fill: none;" class="fills" />
			</g>
			<g data-testid="svg-path">
				<defs>
					<linearGradient x1=".5" y1="0" x2=".5" y2="1" id="k">
						<stop stop-color="hsl(269, 43%, 61%)" offset=".45" />
						<stop stop-color="hsla(269, 43%, 77%, 0.00)" offset="1" />
					</linearGradient>
				</defs>
				<path d="M300.507 527.054c30.541 8.09 92.456 56.778 146.594 38.829 54.137-17.949 56.672-119.104 113.265-124.984 56.592-5.879 103.226 109.717 158.38 96.762 55.153-12.954 52.896-137.666 106.355-158.944 53.46-21.279 94.76 68.097 150.251 56.807 55.492-11.29 59.095-107.201 116.111-110.999 57.016-3.799 100.974 98.646 157.567 92.766 56.592-5.879 57.57-114.692 114.078-120.988 56.508-6.296 103.785 112.464 157.16 90.769 53.375-21.695 43.379-184.446 99.04-194.903 55.661-10.458 133.107 114.559 168.135 144.707" stroke="url(#k)" fill="none" stroke-width="2" style="fill: none;" class="fills" />
			</g>
			<g data-testid="svg-path">
				<defs>
					<linearGradient x1=".5" y1="0" x2=".5" y2="1" id="l">
						<stop stop-color="hsl(269, 43%, 61%)" offset=".45" />
						<stop stop-color="hsla(269, 43%, 77%, 0.00)" offset="1" />
					</linearGradient>
				</defs>
				<path d="M331.516 515.374c29.143 7.992 87.959 55.079 139.89 38.363 51.931-16.716 55.2-113.449 109.379-118.6 54.18-5.151 97.819 105.804 150.681 93.874 52.861-11.931 51.743-131.235 103.054-151.141 51.311-19.906 90.068 65.926 143.239 55.59 53.171-10.335 57.418-102.043 111.984-105.2 54.567-3.158 95.757 95.196 149.936 90.045 54.18-5.151 56.023-109.221 110.124-114.771 54.102-5.551 98.331 108.436 149.564 88.131 51.234-20.306 43.031-176.058 96.358-185.596 53.326-9.538 126.358 110.686 159.61 139.814" stroke="url(#l)" fill="none" stroke-width="2" style="fill: none;" class="fills" />
			</g>
			<g data-testid="svg-path">
				<defs>
					<linearGradient x1=".5" y1="0" x2=".5" y2="1" id="m">
						<stop stop-color="hsl(269, 43%, 61%)" offset=".45" />
						<stop stop-color="hsla(269, 43%, 77%, 0.00)" offset="1" />
					</linearGradient>
				</defs>
				<path d="M362.669 504.245c27.752 7.872 83.499 53.306 133.207 37.783 49.708-15.523 53.634-107.828 105.392-112.294 51.757-4.465 92.488 101.806 143.044 90.859 50.556-10.948 50.482-124.833 99.625-143.407 49.143-18.573 85.421 63.677 136.26 54.255 50.838-9.423 55.655-96.923 107.766-99.482 52.111-2.56 90.608 91.663 142.365 87.198 51.758-4.466 54.384-103.786 106.071-108.633 51.686-4.847 92.954 104.322 142.026 85.367 49.072-18.954 42.539-167.69 93.52-176.35 50.98-8.66 119.687 106.703 151.184 134.783" stroke="url(#m)" fill="none" stroke-width="2" style="fill: none;" class="fills" />
			</g>
			<g data-testid="svg-path">
				<defs>
					<linearGradient x1=".5" y1="0" x2=".5" y2="1" id="n">
						<stop stop-color="hsl(269, 43%, 61%)" offset=".45" />
						<stop stop-color="hsla(269, 43%, 77%, 0.00)" offset="1" />
					</linearGradient>
				</defs>
				<path d="M393.961 493.669c26.363 7.727 79.076 51.459 126.544 37.089 47.469-14.37 51.975-102.243 101.303-106.066 49.328-3.822 87.234 97.723 135.472 87.717 48.238-10.005 49.114-118.464 96.07-135.744 46.955-17.28 80.821 61.352 129.315 52.801 48.494-8.551 53.809-91.841 103.457-93.845 49.649-2.004 85.529 88.048 134.857 84.225 49.328-3.822 52.654-98.388 101.918-102.574 49.264-4.186 87.657 100.123 134.548 82.48 46.891-17.644 41.906-159.346 90.529-167.169 48.622-7.823 113.097 102.613 142.86 129.616" stroke="url(#n)" fill="none" stroke-width="2" style="fill: none;" class="fills" />
			</g>
			<g data-testid="svg-path">
				<defs>
					<linearGradient x1=".5" y1="0" x2=".5" y2="1" id="o">
						<stop stop-color="hsl(269, 43%, 61%)" offset=".45" />
						<stop stop-color="hsla(269, 43%, 77%, 0.00)" offset="1" />
					</linearGradient>
				</defs>
				<path d="M425.383 483.647c24.98 7.559 74.693 49.54 119.905 36.283 45.213-13.258 50.222-96.697 97.114-99.919 46.891-3.223 82.059 93.556 127.966 84.451 45.907-9.105 47.639-112.13 92.388-128.156 44.749-16.026 76.268 58.952 122.407 51.231 46.139-7.721 51.878-86.799 99.059-88.292 47.181-1.492 80.518 84.352 127.41 81.13 46.892-3.223 50.835-93.029 97.669-96.597 46.834-3.569 82.441 95.84 127.132 79.468s41.131-151.025 87.385-158.054c46.255-7.029 106.588 98.416 134.637 124.315" stroke="url(#o)" fill="none" stroke-width="2" style="fill: none;" class="fills" />
			</g>
			<g data-testid="svg-path">
				<defs>
					<linearGradient x1=".5" y1="0" x2=".5" y2="1" id="p">
						<stop stop-color="hsl(269, 43%, 61%)" offset=".45" />
						<stop stop-color="hsla(269, 43%, 77%, 0.00)" offset="1" />
					</linearGradient>
				</defs>
				<path d="M456.929 474.182c23.602 7.367 70.35 47.548 113.29 35.362 42.941-12.185 48.376-91.188 92.825-93.853 44.448-2.665 76.963 89.307 120.528 81.061 43.565-8.246 46.057-105.831 88.582-120.642 42.524-14.812 71.764 56.478 115.536 49.545 43.773-6.933 49.863-81.8 94.572-82.823 44.708-1.024 75.58 80.574 120.029 77.909 44.448-2.665 48.927-87.708 93.324-90.702 44.396-2.993 77.307 91.475 119.779 76.334 42.473-15.14 40.213-142.731 84.089-149.007 43.877-6.276 100.161 94.114 126.519 118.881" stroke="url(#p)" fill="none" stroke-width="2" style="fill: none;" class="fills" />
			</g>
			<g data-testid="svg-path">
				<defs>
					<linearGradient x1=".5" y1="0" x2=".5" y2="1" id="q">
						<stop stop-color="hsl(269, 43%, 61%)" offset=".45" />
						<stop stop-color="hsla(269, 43%, 77%, 0.00)" offset="1" />
					</linearGradient>
				</defs>
				<path d="M488.591 465.273c22.229 7.152 66.047 45.485 106.701 34.331 40.653-11.155 46.438-85.721 88.437-87.872 42-2.15 71.95 84.977 113.16 77.549 41.211-7.429 44.369-99.568 84.652-113.206 40.282-13.638 67.309 53.93 108.705 47.743 41.396-6.187 47.765-76.841 89.997-77.439 42.232-.598 70.715 76.718 112.714 74.568 42-2.151 46.931-82.43 88.884-84.891 41.953-2.461 72.255 87.026 112.491 73.078 40.237-13.949 39.154-134.465 80.643-140.031 41.489-5.566 93.817 89.708 118.505 113.315" stroke="url(#q)" fill="none" stroke-width="2" style="fill: none;" class="fills" />
			</g>
			<g data-testid="svg-path">
				<defs>
					<linearGradient x1=".5" y1="0" x2=".5" y2="1" id="r">
						<stop stop-color="hsl(269, 43%, 61%)" offset=".45" />
						<stop stop-color="hsla(269, 43%, 77%, 0.00)" offset="1" />
					</linearGradient>
				</defs>
				<path d="M520.361 456.923c20.863 6.914 61.786 43.35 100.139 33.186 38.353-10.163 44.409-80.293 83.954-81.972 39.545-1.68 67.016 80.566 105.862 73.913 38.847-6.653 42.576-93.343 80.599-105.847 38.024-12.505 62.905 51.308 101.915 45.825 39.011-5.482 45.585-71.926 85.336-72.142 39.751-.216 65.923 72.784 105.468 71.105 39.545-1.679 44.844-77.193 84.348-79.164 39.504-1.972 67.288 82.497 105.271 69.7 37.982-12.797 37.953-126.229 77.046-131.126 39.093-4.897 87.558 85.198 110.599 107.618" stroke="url(#r)" fill="none" stroke-width="2" style="fill: none;" class="fills" />
			</g>
			<g data-testid="svg-path">
				<defs>
					<linearGradient x1=".5" y1="0" x2=".5" y2="1" id="s">
						<stop stop-color="hsl(269, 43%, 61%)" offset=".45" />
						<stop stop-color="hsla(269, 43%, 77%, 0.00)" offset="1" />
					</linearGradient>
				</defs>
				<path d="M552.233 449.133c19.502 6.652 57.568 41.144 93.605 31.93 36.038-9.214 42.289-74.909 79.375-76.16 37.086-1.25 62.166 76.077 98.638 70.158 36.471-5.92 40.676-87.158 76.424-98.569 35.748-11.412 58.551 48.614 95.167 43.794 36.616-4.821 43.322-67.055 80.589-66.933 37.267.123 61.205 68.772 98.291 67.521 37.085-1.251 42.672-71.998 79.721-73.523 37.05-1.526 62.405 77.888 98.117 66.202 35.712-11.686 36.613-118.024 73.301-122.295 36.688-4.272 81.385 80.586 102.802 101.793" stroke="url(#s)" fill="none" stroke-width="2" style="fill: none;" class="fills" />
			</g>
			<g data-testid="svg-path">
				<defs>
					<linearGradient x1=".5" y1="0" x2=".5" y2="1" id="t">
						<stop stop-color="hsl(269, 43%, 61%)" offset=".45" />
						<stop stop-color="hsla(269, 43%, 77%, 0.00)" offset="1" />
					</linearGradient>
				</defs>
				<path d="M584.2 441.903c18.146 6.368 53.392 38.869 87.101 30.563 33.709-8.306 40.078-69.568 74.7-70.433 34.623-.865 57.4 71.508 91.487 66.281 34.087-5.227 38.673-81.012 72.13-91.372 33.456-10.359 54.249 45.849 88.462 41.648 34.213-4.201 40.979-62.229 75.759-61.811 34.78.418 56.562 64.682 91.184 63.817 34.623-.865 40.412-66.848 75.003-67.97 34.591-1.121 57.608 73.202 91.033 62.586 33.426-10.615 35.132-109.853 69.408-113.541 34.276-3.688 75.3 75.874 95.116 95.841" stroke="url(#t)" fill="none" stroke-width="2" style="fill: none;" class="fills" />
			</g>
			<g data-testid="svg-path">
				<defs>
					<linearGradient x1=".5" y1="0" x2=".5" y2="1" id="u">
						<stop stop-color="hsl(269, 43%, 61%)" offset=".45" />
						<stop stop-color="hsla(269, 43%, 77%, 0.00)" offset="1" />
					</linearGradient>
				</defs>
				<path d="M616.253 435.236c16.798 6.059 49.262 36.524 80.629 29.084 31.367-7.439 37.777-64.272 69.933-64.794 32.155-.523 52.718 66.863 84.411 62.285 31.693-4.577 36.566-74.909 67.716-84.257 31.149-9.348 50.001 43.012 81.802 39.388 31.802-3.623 38.555-57.45 70.846-56.78 32.291.67 51.996 60.519 84.151 59.996 32.155-.523 38.066-61.744 70.194-62.505 32.128-.761 52.898 68.437 84.02 58.851 31.123-9.586 33.511-101.718 65.368-104.865 31.856-3.146 69.304 71.062 87.542 89.763" stroke="url(#u)" fill="none" stroke-width="2" style="fill: none;" class="fills" />
			</g>
			<g data-testid="svg-path">
				<defs>
					<linearGradient x1=".5" y1="0" x2=".5" y2="1" id="v">
						<stop stop-color="hsl(269, 43%, 61%)" offset=".45" />
						<stop stop-color="hsla(269, 43%, 77%, 0.00)" offset="1" />
					</linearGradient>
				</defs>
				<path d="M648.385 429.131c15.456 5.728 45.177 34.11 74.19 27.496 29.013-6.615 35.388-59.022 65.073-59.245 29.684-.223 48.123 62.142 77.413 58.172 29.291-3.97 34.356-68.85 63.183-77.227 28.828-8.378 45.807 40.104 75.19 37.016 29.384-3.089 36.051-52.719 65.852-51.84 29.8.878 47.506 56.28 77.191 56.056 29.685-.223 35.634-56.685 65.295-57.129 29.662-.444 48.276 63.597 77.08 54.999 28.805-8.598 31.752-93.62 61.182-96.268 29.43-2.648 63.398 66.151 80.082 83.56" stroke="url(#v)" fill="none" stroke-width="2" style="fill: none;" class="fills" />
			</g>
			<g data-testid="svg-path">
				<defs>
					<linearGradient x1=".5" y1="0" x2=".5" y2="1" id="w">
						<stop stop-color="hsl(269, 43%, 61%)" offset=".45" />
						<stop stop-color="hsla(269, 43%, 77%, 0.00)" offset="1" />
					</linearGradient>
				</defs>
				<path d="M680.59 423.59c14.121 5.374 41.137 31.628 67.784 25.797 26.647-5.831 32.91-53.818 60.122-53.785 27.212.033 43.614 57.346 70.495 53.942 26.88-3.405 32.041-62.836 58.533-70.284 26.491-7.448 41.667 37.127 68.625 34.531 26.959-2.595 33.467-48.035 60.776-46.991 27.309 1.044 43.096 51.968 70.308 52.001 27.212.032 33.116-51.675 60.309-51.844 27.192-.17 43.742 58.68 70.214 51.03 26.472-7.651 29.853-85.562 56.851-87.753 26.997-2.192 57.584 61.143 72.737 77.234" stroke="url(#w)" fill="none" stroke-width="2" style="fill: none;" class="fills" />
			</g>
			<g data-testid="svg-path">
				<defs>
					<linearGradient x1=".5" y1="0" x2=".5" y2="1" id="x">
						<stop stop-color="hsl(269, 43%, 61%)" offset=".45" />
						<stop stop-color="hsla(269, 43%, 77%, 0.00)" offset="1" />
					</linearGradient>
				</defs>
				<path d="M712.859 418.613c12.795 4.998 37.145 29.078 61.415 23.989 24.27-5.089 30.344-48.662 55.081-48.417 24.737.246 39.192 52.477 63.655 49.596 24.464-2.882 29.627-56.867 53.768-63.428 24.141-6.561 37.583 34.082 62.11 31.936 24.528-2.146 30.805-43.401 55.622-42.236 24.817 1.165 38.764 47.584 63.501 47.829 24.737.246 30.515-46.712 55.235-46.65 24.721.061 39.299 53.691 63.424 46.946 24.125-6.745 27.817-77.543 52.377-79.321 24.56-1.778 51.862 56.039 65.51 70.787" stroke="url(#x)" fill="none" stroke-width="2" style="fill: none;" class="fills" />
			</g>
			<g data-testid="svg-path">
				<defs>
					<linearGradient x1=".5" y1="0" x2=".5" y2="1" id="y">
						<stop stop-color="hsl(269, 43%, 61%)" offset=".45" />
						<stop stop-color="hsla(269, 43%, 77%, 0.00)" offset="1" />
					</linearGradient>
				</defs>
				<path d="M745.185 414.202c11.476 4.598 33.201 26.461 55.083 22.071 21.882-4.389 27.691-43.556 49.951-43.141 22.261.416 34.86 47.536 56.899 45.135 22.038-2.402 27.109-50.946 48.887-56.661 21.777-5.715 33.555 30.967 55.646 29.229 22.091-1.739 28.064-38.818 50.389-37.574 22.326 1.244 34.513 43.128 56.774 43.544 22.26.415 27.829-41.8 50.076-41.551 22.247.25 34.946 48.629 56.71 42.749 21.765-5.881 25.644-69.568 47.761-70.976 22.117-1.407 46.234 50.842 58.4 64.221" stroke="url(#y)" fill="none" stroke-width="2" style="fill: none;" class="fills" />
			</g>
			<g data-testid="svg-path">
				<defs>
					<linearGradient x1=".5" y1="0" x2=".5" y2="1" id="z">
						<stop stop-color="hsl(269, 43%, 61%)" offset=".45" />
						<stop stop-color="hsla(269, 43%, 77%, 0.00)" offset="1" />
					</linearGradient>
				</defs>
				<path d="M777.561 410.356c10.165 4.176 29.306 23.778 48.79 20.046 19.484-3.732 24.951-38.5 44.734-37.959 19.783.542 30.616 42.523 50.224 40.559 19.608-1.963 24.491-45.073 43.893-49.983 19.402-4.911 29.586 27.785 49.235 26.411 19.649-1.374 25.246-34.285 45.08-33.006 19.835 1.278 30.343 38.602 50.126 39.144 19.782.542 25.06-36.938 44.832-36.544 19.773.395 30.685 43.495 50.076 38.437 19.392-5.058 23.333-61.637 43.003-62.716 19.669-1.079 40.701 45.549 51.411 57.536" stroke="url(#z)" fill="none" stroke-width="2" style="fill: none;" class="fills" />
			</g>
			<g data-testid="svg-path">
				<defs>
					<linearGradient x1=".5" y1="0" x2=".5" y2="1" id="A">
						<stop stop-color="hsl(269, 43%, 61%)" offset=".45" />
						<stop stop-color="hsla(269, 43%, 77%, 0.00)" offset="1" />
					</linearGradient>
				</defs>
				<path d="M809.979 407.077c8.862 3.731 25.46 21.028 42.537 17.911 17.076-3.116 22.125-33.495 39.43-32.87 17.306.625 26.464 37.439 43.635 35.871 17.171-1.568 21.773-39.25 38.787-43.399 17.013-4.149 25.674 24.538 42.877 23.485 17.203-1.052 22.351-29.806 39.696-28.535 17.344 1.27 26.254 34.007 43.559 34.632 17.305.625 22.209-32.128 39.506-31.632 17.298.496 26.516 38.291 43.521 34.014 17.006-4.278 20.887-53.753 38.105-54.547 17.219-.794 35.264 40.165 44.544 50.735" stroke="url(#A)" fill="none" stroke-width="2" style="fill: none;" class="fills" />
			</g>
			<g data-testid="svg-path">
				<defs>
					<linearGradient x1=".5" y1="0" x2=".5" y2="1" id="B">
						<stop stop-color="hsl(269, 43%, 61%)" offset=".45" />
						<stop stop-color="hsla(269, 43%, 77%, 0.00)" offset="1" />
					</linearGradient>
				</defs>
				<path d="M842.433 404.364c7.567 3.265 21.665 18.214 36.324 15.67 14.66-2.543 19.214-28.544 34.042-27.879 14.828.666 22.403 32.288 37.132 31.072 14.729-1.215 18.956-33.478 33.569-36.907 14.613-3.429 21.822 21.223 36.575 20.45 14.752-.773 19.38-25.38 34.237-24.161 14.857 1.218 22.248 29.344 37.076 30.01 14.828.665 19.276-27.372 34.098-26.817 14.822.555 22.44 33.018 37.048 29.479 14.607-3.54 18.304-45.916 33.068-46.467 14.764-.552 29.924 34.689 37.799 43.818" stroke="url(#B)" fill="none" stroke-width="2" style="fill: none;" class="fills" />
			</g>
			<g data-testid="svg-path">
				<defs>
					<linearGradient x1=".5" y1="0" x2=".5" y2="1" id="C">
						<stop stop-color="hsl(269, 43%, 61%)" offset=".45" />
						<stop stop-color="hsla(269, 43%, 77%, 0.00)" offset="1" />
					</linearGradient>
				</defs>
				<path d="M874.914 402.218c6.282 2.776 17.921 15.335 30.155 13.322 12.234-2.012 16.219-23.646 28.57-22.984 12.351.663 18.433 27.069 30.716 26.163 12.283-.906 16.039-27.76 28.241-30.511 12.203-2.751 18.031 17.844 30.33 17.307 12.299-.537 16.334-21.008 28.705-19.885 12.371 1.124 18.326 24.615 30.677 25.277 12.352.662 16.262-22.668 28.609-22.098 12.347.57 18.46 27.677 30.658 24.834s15.586-38.128 27.893-38.481c12.307-.352 24.684 29.125 31.18 36.789" stroke="url(#C)" fill="none" stroke-width="2" style="fill: none;" class="fills" />
			</g>
			<g data-testid="svg-path">
				<defs>
					<linearGradient x1=".5" y1="0" x2=".5" y2="1" id="D">
						<stop stop-color="hsl(269, 43%, 61%)" offset=".45" />
						<stop stop-color="hsla(269, 43%, 77%, 0.00)" offset="1" />
					</linearGradient>
				</defs>
				<path d="M907.415 400.64c5.006 2.264 14.229 12.392 24.03 10.868 9.801-1.525 13.14-18.803 23.016-18.187 9.876.615 14.557 21.782 24.389 21.143 9.832-.639 13.025-22.095 22.805-24.211 9.781-2.115 14.299 14.401 24.142 14.057 9.842-.343 13.213-16.691 23.102-15.706 9.889.985 14.488 19.819 24.364 20.435 9.876.615 13.167-18.021 23.041-17.479 9.873.542 14.574 22.27 24.352 20.081 9.778-2.19 12.735-30.393 22.582-30.589 9.848-.196 19.544 23.471 24.687 29.648" stroke="url(#D)" fill="none" stroke-width="2" style="fill: none;" class="fills" />
			</g>
			<g data-testid="svg-path">
				<defs>
					<linearGradient x1=".5" y1="0" x2=".5" y2="1" id="E">
						<stop stop-color="hsl(269, 43%, 61%)" offset=".45" />
						<stop stop-color="hsla(269, 43%, 77%, 0.00)" offset="1" />
					</linearGradient>
				</defs>
				<path d="M939.929 399.628c3.739 1.731 10.59 9.388 17.95 8.308 7.361-1.079 9.978-14.015 17.381-13.489 7.402.527 10.774 16.432 18.152 16.017 7.378-.415 9.913-16.486 17.262-18.008 7.349-1.523 10.63 10.894 18.014 10.7 7.383-.193 10.019-12.432 17.429-11.628 7.409.803 10.736 14.958 18.138 15.485 7.403.526 9.993-13.429 17.394-12.958 7.402.472 10.785 16.797 18.132 15.22 7.348-1.578 9.75-22.711 17.137-22.793 7.387-.083 14.503 17.73 18.32 22.396" stroke="url(#E)" fill="none" stroke-width="2" style="fill: none;" class="fills" />
			</g>
			<g data-testid="svg-path">
				<defs>
					<linearGradient x1=".5" y1="0" x2=".5" y2="1" id="F">
						<stop stop-color="hsl(269, 43%, 61%)" offset=".45" />
						<stop stop-color="hsla(269, 43%, 77%, 0.00)" offset="1" />
					</linearGradient>
				</defs>
				<path d="M972.448 399.185c2.483 1.175 7.005 6.319 11.918 5.643 4.913-.677 6.733-9.286 11.665-8.892 4.932.395 7.087 11.017 12.008 10.783 4.921-.233 6.704-10.932 11.612-11.904 4.908-.972 7.023 7.324 11.947 7.238 4.923-.086 6.751-8.229 11.686-7.651 4.935.579 7.07 10.035 12.002 10.429 4.932.394 6.74-8.894 11.671-8.537 4.931.357 7.091 11.26 11.999 10.251 4.907-1.009 6.632-15.082 11.556-15.095 4.925-.012 9.566 11.905 12.083 15.037" stroke="url(#F)" fill="none" stroke-width="2" style="fill: none;" class="fills" />
			</g>
			<g data-testid="svg-path">
				<defs>
					<linearGradient x1=".5" y1="0" x2=".5" y2="1" id="G">
						<stop stop-color="hsl(269, 43%, 61%)" offset=".45" />
						<stop stop-color="hsla(269, 43%, 77%, 0.00)" offset="1" />
					</linearGradient>
				</defs>
				<path d="M1004.964 399.309c1.237.598 3.475 3.19 5.935 2.873 2.459-.317 3.407-4.613 5.871-4.395 2.464.219 3.495 5.539 5.957 5.444 2.461-.095 3.399-5.437 5.857-5.901 2.459-.465 3.48 3.692 5.942 3.671 2.462-.022 3.411-4.085 5.876-3.774 2.465.311 3.491 5.048 5.955 5.266 2.465.219 3.409-4.417 5.873-4.217 2.464.2 3.496 5.661 5.954 5.178 2.458-.484 3.382-7.513 5.844-7.497 2.463.015 4.731 5.993 5.976 7.571" stroke="url(#G)" fill="none" stroke-width="2" style="fill: none;" class="fills" />
			</g>
		</g>
	</g>
</svg>
